<?xml version="1.0" encoding="iso-8859-1"?>
<!-- Generator: Adobe Illustrator 16.0.0, SVG Export Plug-In . SVG Version: 6.00 Build 0)  -->
<!DOCTYPE svg PUBLIC "-//W3C//DTD SVG 1.1//EN" "http://www.w3.org/Graphics/SVG/1.1/DTD/svg11.dtd">
<svg version="1.1" id="Layer_1" xmlns="http://www.w3.org/2000/svg" xmlns:xlink="http://www.w3.org/1999/xlink" x="0px" y="0px"
	 width="32px" height="32px" viewBox="0 0 32 32" style="enable-background:new 0 0 32 32;" xml:space="preserve">
<g>
	<g>
		<linearGradient id="SVGID_1_" gradientUnits="userSpaceOnUse" x1="16.3599" y1="2.373" x2="16.3599" y2="29.0552">
			<stop  offset="0" style="stop-color:#00C13E"/>
			<stop  offset="1" style="stop-color:#008530"/>
		</linearGradient>
		<path style="fill-rule:evenodd;clip-rule:evenodd;fill:url(#SVGID_1_);" d="M16.361,2.373c-7.416,0-13.446,5.984-13.446,13.342
			c0,2.917,0.951,5.623,2.561,7.822l-1.679,4.954l5.166-1.642c2.123,1.393,4.666,2.205,7.398,2.205
			c7.413,0,13.445-5.983,13.445-13.339C29.806,8.357,23.773,2.373,16.361,2.373L16.361,2.373z"/>
		<g>
			<path style="fill-rule:evenodd;clip-rule:evenodd;fill:#FFFFFF;" d="M31.519,15.601c0,8.349-6.821,15.117-15.236,15.117
				c-2.672,0-5.183-0.682-7.365-1.881l-8.436,2.682l2.75-8.111c-1.388-2.278-2.186-4.95-2.186-7.807
				c0-8.35,6.821-15.119,15.236-15.119C24.697,0.482,31.519,7.251,31.519,15.601L31.519,15.601z M16.283,2.89
				c-7.064,0-12.81,5.701-12.81,12.711c0,2.779,0.905,5.356,2.44,7.452l-1.6,4.721l4.922-1.564c2.022,1.326,4.445,2.102,7.048,2.102
				c7.063,0,12.809-5.702,12.809-12.71C29.092,8.591,23.346,2.89,16.283,2.89L16.283,2.89z M23.977,19.083
				c-0.095-0.154-0.344-0.248-0.716-0.433c-0.373-0.186-2.211-1.083-2.552-1.206c-0.343-0.123-0.594-0.185-0.842,0.186
				s-0.965,1.205-1.184,1.453c-0.217,0.248-0.434,0.278-0.808,0.093s-1.578-0.578-3.004-1.838c-1.109-0.984-1.859-2.197-2.078-2.567
				c-0.217-0.37-0.022-0.57,0.164-0.755c0.168-0.167,0.374-0.433,0.561-0.648c0.187-0.217,0.249-0.373,0.374-0.62
				c0.125-0.248,0.063-0.463-0.032-0.649c-0.093-0.184-0.84-2.008-1.152-2.751c-0.309-0.741-0.621-0.713-0.84-0.713
				c-0.218,0-0.621,0.064-0.621,0.064s-0.749,0.093-1.09,0.463c-0.342,0.37-1.307,1.268-1.307,3.089
				c0,1.824,1.337,3.587,1.523,3.832c0.188,0.249,2.583,4.113,6.38,5.596c3.797,1.484,3.797,0.988,4.482,0.926
				c0.685-0.061,2.209-0.895,2.521-1.762C24.069,19.979,24.069,19.236,23.977,19.083L23.977,19.083z M23.977,19.083"/>
		</g>
	</g>
</g>
</svg>
